<?xml version="1.0" encoding="utf-8" standalone="no"?>
<!DOCTYPE svg PUBLIC "-//W3C//DTD SVG 1.1//EN"
  "http://www.w3.org/Graphics/SVG/1.1/DTD/svg11.dtd">
<svg xmlns:xlink="http://www.w3.org/1999/xlink" width="360pt" height="288pt" viewBox="0 0 360 288" xmlns="http://www.w3.org/2000/svg" version="1.1">
 <metadata>
  <rdf:RDF xmlns:dc="http://purl.org/dc/elements/1.1/" xmlns:cc="http://creativecommons.org/ns#" xmlns:rdf="http://www.w3.org/1999/02/22-rdf-syntax-ns#">
   <cc:Work>
    <dc:type rdf:resource="http://purl.org/dc/dcmitype/StillImage"/>
    <dc:date>2026-04-19T15:55:41.093691</dc:date>
    <dc:format>image/svg+xml</dc:format>
    <dc:creator>
     <cc:Agent>
      <dc:title>Matplotlib v3.9.4, https://matplotlib.org/</dc:title>
     </cc:Agent>
    </dc:creator>
   </cc:Work>
  </rdf:RDF>
 </metadata>
 <defs>
  <style type="text/css">*{stroke-linejoin: round; stroke-linecap: butt}</style>
 </defs>
 <g id="figure_1">
  <g id="patch_1">
   <path d="M 0 288 
L 360 288 
L 360 0 
L 0 0 
z
" style="fill: #ffffff"/>
  </g>
  <g id="axes_1">
   <g id="patch_2">
    <path d="M 36.988906 248.302354 
L 97.652578 248.302354 
L 97.652578 51.84 
L 36.988906 51.84 
z
" style="fill: #ffffff"/>
   </g>
   <g id="patch_3">
    <path d="M 39.746346 218.833001 
L 62.725009 218.833001 
L 62.725009 221.650009 
L 39.746346 221.650009 
z
" clip-path="url(#p98aae4db7c)" style="fill: #7f7f7f; stroke: #000000; stroke-width: 0.5; stroke-linejoin: miter"/>
   </g>
   <g id="patch_4">
    <path d="M 71.916475 218.833001 
L 94.895138 218.833001 
L 94.895138 221.955623 
L 71.916475 221.955623 
z
" clip-path="url(#p98aae4db7c)" style="fill: #7f7f7f; stroke: #000000; stroke-width: 0.5; stroke-linejoin: miter"/>
   </g>
   <g id="patch_5">
    <path d="M 39.746346 218.833001 
L 62.725009 218.833001 
L 62.725009 120.601824 
L 39.746346 120.601824 
z
" clip-path="url(#p98aae4db7c)" style="fill: #1f4e8c; stroke: #000000; stroke-width: 0.5; stroke-linejoin: miter"/>
   </g>
   <g id="patch_6">
    <path d="M 71.916475 218.833001 
L 94.895138 218.833001 
L 94.895138 120.601824 
L 71.916475 120.601824 
z
" clip-path="url(#p98aae4db7c)" style="fill: #1f4e8c; stroke: #000000; stroke-width: 0.5; stroke-linejoin: miter"/>
   </g>
   <g id="patch_7">
    <path d="M 39.746346 120.601824 
L 62.725009 120.601824 
L 62.725009 87.200158 
L 39.746346 87.200158 
z
" clip-path="url(#p98aae4db7c)" style="fill: #e58b00; stroke: #000000; stroke-width: 0.5; stroke-linejoin: miter"/>
   </g>
   <g id="patch_8">
    <path d="M 71.916475 120.601824 
L 94.895138 120.601824 
L 94.895138 83.214124 
L 71.916475 83.214124 
z
" clip-path="url(#p98aae4db7c)" style="fill: #e58b00; stroke: #000000; stroke-width: 0.5; stroke-linejoin: miter"/>
   </g>
   <g id="matplotlib.axis_1">
    <g id="xtick_1">
     <g id="line2d_1">
      <defs>
       <path id="m3c630759c0" d="M 0 0 
L 0 3.5 
" style="stroke: #000000"/>
      </defs>
      <g>
       <use xlink:href="#m3c630759c0" x="51.235678" y="248.302354" style="stroke: #000000"/>
      </g>
     </g>
     <g id="text_1">
      <!-- label free -->
      <g transform="translate(29.891439 279.205767) rotate(-45) scale(0.07 -0.07)">
       <defs>
        <path id="ArialMT-6c" d="M 409 0 
L 409 4581 
L 972 4581 
L 972 0 
L 409 0 
z
" transform="scale(0.015625)"/>
        <path id="ArialMT-61" d="M 2588 409 
Q 2275 144 1986 34 
Q 1697 -75 1366 -75 
Q 819 -75 525 192 
Q 231 459 231 875 
Q 231 1119 342 1320 
Q 453 1522 633 1644 
Q 813 1766 1038 1828 
Q 1203 1872 1538 1913 
Q 2219 1994 2541 2106 
Q 2544 2222 2544 2253 
Q 2544 2597 2384 2738 
Q 2169 2928 1744 2928 
Q 1347 2928 1158 2789 
Q 969 2650 878 2297 
L 328 2372 
Q 403 2725 575 2942 
Q 747 3159 1072 3276 
Q 1397 3394 1825 3394 
Q 2250 3394 2515 3294 
Q 2781 3194 2906 3042 
Q 3031 2891 3081 2659 
Q 3109 2516 3109 2141 
L 3109 1391 
Q 3109 606 3145 398 
Q 3181 191 3288 0 
L 2700 0 
Q 2613 175 2588 409 
z
M 2541 1666 
Q 2234 1541 1622 1453 
Q 1275 1403 1131 1340 
Q 988 1278 909 1158 
Q 831 1038 831 891 
Q 831 666 1001 516 
Q 1172 366 1500 366 
Q 1825 366 2078 508 
Q 2331 650 2450 897 
Q 2541 1088 2541 1459 
L 2541 1666 
z
" transform="scale(0.015625)"/>
        <path id="ArialMT-62" d="M 941 0 
L 419 0 
L 419 4581 
L 981 4581 
L 981 2947 
Q 1338 3394 1891 3394 
Q 2197 3394 2470 3270 
Q 2744 3147 2920 2923 
Q 3097 2700 3197 2384 
Q 3297 2069 3297 1709 
Q 3297 856 2875 390 
Q 2453 -75 1863 -75 
Q 1275 -75 941 416 
L 941 0 
z
M 934 1684 
Q 934 1088 1097 822 
Q 1363 388 1816 388 
Q 2184 388 2453 708 
Q 2722 1028 2722 1663 
Q 2722 2313 2464 2622 
Q 2206 2931 1841 2931 
Q 1472 2931 1203 2611 
Q 934 2291 934 1684 
z
" transform="scale(0.015625)"/>
        <path id="ArialMT-65" d="M 2694 1069 
L 3275 997 
Q 3138 488 2766 206 
Q 2394 -75 1816 -75 
Q 1088 -75 661 373 
Q 234 822 234 1631 
Q 234 2469 665 2931 
Q 1097 3394 1784 3394 
Q 2450 3394 2872 2941 
Q 3294 2488 3294 1666 
Q 3294 1616 3291 1516 
L 816 1516 
Q 847 969 1125 678 
Q 1403 388 1819 388 
Q 2128 388 2347 550 
Q 2566 713 2694 1069 
z
M 847 1978 
L 2700 1978 
Q 2663 2397 2488 2606 
Q 2219 2931 1791 2931 
Q 1403 2931 1139 2672 
Q 875 2413 847 1978 
z
" transform="scale(0.015625)"/>
        <path id="ArialMT-20" transform="scale(0.015625)"/>
        <path id="ArialMT-66" d="M 556 0 
L 556 2881 
L 59 2881 
L 59 3319 
L 556 3319 
L 556 3672 
Q 556 4006 616 4169 
Q 697 4388 901 4523 
Q 1106 4659 1475 4659 
Q 1713 4659 2000 4603 
L 1916 4113 
Q 1741 4144 1584 4144 
Q 1328 4144 1222 4034 
Q 1116 3925 1116 3625 
L 1116 3319 
L 1763 3319 
L 1763 2881 
L 1116 2881 
L 1116 0 
L 556 0 
z
" transform="scale(0.015625)"/>
        <path id="ArialMT-72" d="M 416 0 
L 416 3319 
L 922 3319 
L 922 2816 
Q 1116 3169 1280 3281 
Q 1444 3394 1641 3394 
Q 1925 3394 2219 3213 
L 2025 2691 
Q 1819 2813 1613 2813 
Q 1428 2813 1281 2702 
Q 1134 2591 1072 2394 
Q 978 2094 978 1738 
L 978 0 
L 416 0 
z
" transform="scale(0.015625)"/>
       </defs>
       <use xlink:href="#ArialMT-6c"/>
       <use xlink:href="#ArialMT-61" x="22.216797"/>
       <use xlink:href="#ArialMT-62" x="77.832031"/>
       <use xlink:href="#ArialMT-65" x="133.447266"/>
       <use xlink:href="#ArialMT-6c" x="189.0625"/>
       <use xlink:href="#ArialMT-20" x="211.279297"/>
       <use xlink:href="#ArialMT-66" x="239.0625"/>
       <use xlink:href="#ArialMT-72" x="266.845703"/>
       <use xlink:href="#ArialMT-65" x="300.146484"/>
       <use xlink:href="#ArialMT-65" x="355.761719"/>
      </g>
     </g>
    </g>
    <g id="xtick_2">
     <g id="line2d_2">
      <g>
       <use xlink:href="#m3c630759c0" x="83.405807" y="248.302354" style="stroke: #000000"/>
      </g>
     </g>
     <g id="text_2">
      <!-- UCEC -->
      <g transform="translate(68.396471 272.870864) rotate(-45) scale(0.07 -0.07)">
       <defs>
        <path id="ArialMT-55" d="M 3500 4581 
L 4106 4581 
L 4106 1934 
Q 4106 1244 3950 837 
Q 3794 431 3386 176 
Q 2978 -78 2316 -78 
Q 1672 -78 1262 144 
Q 853 366 678 786 
Q 503 1206 503 1934 
L 503 4581 
L 1109 4581 
L 1109 1938 
Q 1109 1341 1220 1058 
Q 1331 775 1601 622 
Q 1872 469 2263 469 
Q 2931 469 3215 772 
Q 3500 1075 3500 1938 
L 3500 4581 
z
" transform="scale(0.015625)"/>
        <path id="ArialMT-43" d="M 3763 1606 
L 4369 1453 
Q 4178 706 3683 314 
Q 3188 -78 2472 -78 
Q 1731 -78 1267 223 
Q 803 525 561 1097 
Q 319 1669 319 2325 
Q 319 3041 592 3573 
Q 866 4106 1370 4382 
Q 1875 4659 2481 4659 
Q 3169 4659 3637 4309 
Q 4106 3959 4291 3325 
L 3694 3184 
Q 3534 3684 3231 3912 
Q 2928 4141 2469 4141 
Q 1941 4141 1586 3887 
Q 1231 3634 1087 3207 
Q 944 2781 944 2328 
Q 944 1744 1114 1308 
Q 1284 872 1643 656 
Q 2003 441 2422 441 
Q 2931 441 3284 734 
Q 3638 1028 3763 1606 
z
" transform="scale(0.015625)"/>
        <path id="ArialMT-45" d="M 506 0 
L 506 4581 
L 3819 4581 
L 3819 4041 
L 1113 4041 
L 1113 2638 
L 3647 2638 
L 3647 2100 
L 1113 2100 
L 1113 541 
L 3925 541 
L 3925 0 
L 506 0 
z
" transform="scale(0.015625)"/>
       </defs>
       <use xlink:href="#ArialMT-55"/>
       <use xlink:href="#ArialMT-43" x="72.216797"/>
       <use xlink:href="#ArialMT-45" x="144.433594"/>
       <use xlink:href="#ArialMT-43" x="211.132812"/>
      </g>
     </g>
    </g>
   </g>
   <g id="matplotlib.axis_2">
    <g id="ytick_1">
     <g id="line2d_3">
      <defs>
       <path id="m410d99f561" d="M 0 0 
L -3.5 0 
" style="stroke: #000000"/>
      </defs>
      <g>
       <use xlink:href="#m410d99f561" x="36.988906" y="243.390795" style="stroke: #000000"/>
      </g>
     </g>
     <g id="text_3">
      <!-- -25 -->
      <g transform="translate(19.872812 245.896029) scale(0.07 -0.07)">
       <defs>
        <path id="ArialMT-2d" d="M 203 1375 
L 203 1941 
L 1931 1941 
L 1931 1375 
L 203 1375 
z
" transform="scale(0.015625)"/>
        <path id="ArialMT-32" d="M 3222 541 
L 3222 0 
L 194 0 
Q 188 203 259 391 
Q 375 700 629 1000 
Q 884 1300 1366 1694 
Q 2113 2306 2375 2664 
Q 2638 3022 2638 3341 
Q 2638 3675 2398 3904 
Q 2159 4134 1775 4134 
Q 1369 4134 1125 3890 
Q 881 3647 878 3216 
L 300 3275 
Q 359 3922 746 4261 
Q 1134 4600 1788 4600 
Q 2447 4600 2831 4234 
Q 3216 3869 3216 3328 
Q 3216 3053 3103 2787 
Q 2991 2522 2730 2228 
Q 2469 1934 1863 1422 
Q 1356 997 1212 845 
Q 1069 694 975 541 
L 3222 541 
z
" transform="scale(0.015625)"/>
        <path id="ArialMT-35" d="M 266 1200 
L 856 1250 
Q 922 819 1161 601 
Q 1400 384 1738 384 
Q 2144 384 2425 690 
Q 2706 997 2706 1503 
Q 2706 1984 2436 2262 
Q 2166 2541 1728 2541 
Q 1456 2541 1237 2417 
Q 1019 2294 894 2097 
L 366 2166 
L 809 4519 
L 3088 4519 
L 3088 3981 
L 1259 3981 
L 1013 2750 
Q 1425 3038 1878 3038 
Q 2478 3038 2890 2622 
Q 3303 2206 3303 1553 
Q 3303 931 2941 478 
Q 2500 -78 1738 -78 
Q 1113 -78 717 272 
Q 322 622 266 1200 
z
" transform="scale(0.015625)"/>
       </defs>
       <use xlink:href="#ArialMT-2d"/>
       <use xlink:href="#ArialMT-32" x="33.300781"/>
       <use xlink:href="#ArialMT-35" x="88.916016"/>
      </g>
     </g>
    </g>
    <g id="ytick_2">
     <g id="line2d_4">
      <g>
       <use xlink:href="#m410d99f561" x="36.988906" y="218.833001" style="stroke: #000000"/>
      </g>
     </g>
     <g id="text_4">
      <!-- 0 -->
      <g transform="translate(26.09625 221.338235) scale(0.07 -0.07)">
       <defs>
        <path id="ArialMT-30" d="M 266 2259 
Q 266 3072 433 3567 
Q 600 4063 929 4331 
Q 1259 4600 1759 4600 
Q 2128 4600 2406 4451 
Q 2684 4303 2865 4023 
Q 3047 3744 3150 3342 
Q 3253 2941 3253 2259 
Q 3253 1453 3087 958 
Q 2922 463 2592 192 
Q 2263 -78 1759 -78 
Q 1097 -78 719 397 
Q 266 969 266 2259 
z
M 844 2259 
Q 844 1131 1108 757 
Q 1372 384 1759 384 
Q 2147 384 2411 759 
Q 2675 1134 2675 2259 
Q 2675 3391 2411 3762 
Q 2147 4134 1753 4134 
Q 1366 4134 1134 3806 
Q 844 3388 844 2259 
z
" transform="scale(0.015625)"/>
       </defs>
       <use xlink:href="#ArialMT-30"/>
      </g>
     </g>
    </g>
    <g id="ytick_3">
     <g id="line2d_5">
      <g>
       <use xlink:href="#m410d99f561" x="36.988906" y="194.275207" style="stroke: #000000"/>
      </g>
     </g>
     <g id="text_5">
      <!-- 25 -->
      <g transform="translate(22.203594 196.780441) scale(0.07 -0.07)">
       <use xlink:href="#ArialMT-32"/>
       <use xlink:href="#ArialMT-35" x="55.615234"/>
      </g>
     </g>
    </g>
    <g id="ytick_4">
     <g id="line2d_6">
      <g>
       <use xlink:href="#m410d99f561" x="36.988906" y="169.717412" style="stroke: #000000"/>
      </g>
     </g>
     <g id="text_6">
      <!-- 50 -->
      <g transform="translate(22.203594 172.222647) scale(0.07 -0.07)">
       <use xlink:href="#ArialMT-35"/>
       <use xlink:href="#ArialMT-30" x="55.615234"/>
      </g>
     </g>
    </g>
    <g id="ytick_5">
     <g id="line2d_7">
      <g>
       <use xlink:href="#m410d99f561" x="36.988906" y="145.159618" style="stroke: #000000"/>
      </g>
     </g>
     <g id="text_7">
      <!-- 75 -->
      <g transform="translate(22.203594 147.664852) scale(0.07 -0.07)">
       <defs>
        <path id="ArialMT-37" d="M 303 3981 
L 303 4522 
L 3269 4522 
L 3269 4084 
Q 2831 3619 2401 2847 
Q 1972 2075 1738 1259 
Q 1569 684 1522 0 
L 944 0 
Q 953 541 1156 1306 
Q 1359 2072 1739 2783 
Q 2119 3494 2547 3981 
L 303 3981 
z
" transform="scale(0.015625)"/>
       </defs>
       <use xlink:href="#ArialMT-37"/>
       <use xlink:href="#ArialMT-35" x="55.615234"/>
      </g>
     </g>
    </g>
    <g id="ytick_6">
     <g id="line2d_8">
      <g>
       <use xlink:href="#m410d99f561" x="36.988906" y="120.601824" style="stroke: #000000"/>
      </g>
     </g>
     <g id="text_8">
      <!-- 100 -->
      <g transform="translate(18.310937 123.107058) scale(0.07 -0.07)">
       <defs>
        <path id="ArialMT-31" d="M 2384 0 
L 1822 0 
L 1822 3584 
Q 1619 3391 1289 3197 
Q 959 3003 697 2906 
L 697 3450 
Q 1169 3672 1522 3987 
Q 1875 4303 2022 4600 
L 2384 4600 
L 2384 0 
z
" transform="scale(0.015625)"/>
       </defs>
       <use xlink:href="#ArialMT-31"/>
       <use xlink:href="#ArialMT-30" x="55.615234"/>
       <use xlink:href="#ArialMT-30" x="111.230469"/>
      </g>
     </g>
    </g>
    <g id="ytick_7">
     <g id="line2d_9">
      <g>
       <use xlink:href="#m410d99f561" x="36.988906" y="96.04403" style="stroke: #000000"/>
      </g>
     </g>
     <g id="text_9">
      <!-- 125 -->
      <g transform="translate(18.310937 98.549264) scale(0.07 -0.07)">
       <use xlink:href="#ArialMT-31"/>
       <use xlink:href="#ArialMT-32" x="55.615234"/>
       <use xlink:href="#ArialMT-35" x="111.230469"/>
      </g>
     </g>
    </g>
    <g id="ytick_8">
     <g id="line2d_10">
      <g>
       <use xlink:href="#m410d99f561" x="36.988906" y="71.486235" style="stroke: #000000"/>
      </g>
     </g>
     <g id="text_10">
      <!-- 150 -->
      <g transform="translate(18.310937 73.99147) scale(0.07 -0.07)">
       <use xlink:href="#ArialMT-31"/>
       <use xlink:href="#ArialMT-35" x="55.615234"/>
       <use xlink:href="#ArialMT-30" x="111.230469"/>
      </g>
     </g>
    </g>
    <g id="text_11">
     <!-- Percentage (%) -->
     <g transform="translate(12.837656 174.38688) rotate(-90) scale(0.07 -0.07)">
      <defs>
       <path id="ArialMT-50" d="M 494 0 
L 494 4581 
L 2222 4581 
Q 2678 4581 2919 4538 
Q 3256 4481 3484 4323 
Q 3713 4166 3852 3881 
Q 3991 3597 3991 3256 
Q 3991 2672 3619 2267 
Q 3247 1863 2275 1863 
L 1100 1863 
L 1100 0 
L 494 0 
z
M 1100 2403 
L 2284 2403 
Q 2872 2403 3119 2622 
Q 3366 2841 3366 3238 
Q 3366 3525 3220 3729 
Q 3075 3934 2838 4000 
Q 2684 4041 2272 4041 
L 1100 4041 
L 1100 2403 
z
" transform="scale(0.015625)"/>
       <path id="ArialMT-63" d="M 2588 1216 
L 3141 1144 
Q 3050 572 2676 248 
Q 2303 -75 1759 -75 
Q 1078 -75 664 370 
Q 250 816 250 1647 
Q 250 2184 428 2587 
Q 606 2991 970 3192 
Q 1334 3394 1763 3394 
Q 2303 3394 2647 3120 
Q 2991 2847 3088 2344 
L 2541 2259 
Q 2463 2594 2264 2762 
Q 2066 2931 1784 2931 
Q 1359 2931 1093 2626 
Q 828 2322 828 1663 
Q 828 994 1084 691 
Q 1341 388 1753 388 
Q 2084 388 2306 591 
Q 2528 794 2588 1216 
z
" transform="scale(0.015625)"/>
       <path id="ArialMT-6e" d="M 422 0 
L 422 3319 
L 928 3319 
L 928 2847 
Q 1294 3394 1984 3394 
Q 2284 3394 2536 3286 
Q 2788 3178 2913 3003 
Q 3038 2828 3088 2588 
Q 3119 2431 3119 2041 
L 3119 0 
L 2556 0 
L 2556 2019 
Q 2556 2363 2490 2533 
Q 2425 2703 2258 2804 
Q 2091 2906 1866 2906 
Q 1506 2906 1245 2678 
Q 984 2450 984 1813 
L 984 0 
L 422 0 
z
" transform="scale(0.015625)"/>
       <path id="ArialMT-74" d="M 1650 503 
L 1731 6 
Q 1494 -44 1306 -44 
Q 1000 -44 831 53 
Q 663 150 594 308 
Q 525 466 525 972 
L 525 2881 
L 113 2881 
L 113 3319 
L 525 3319 
L 525 4141 
L 1084 4478 
L 1084 3319 
L 1650 3319 
L 1650 2881 
L 1084 2881 
L 1084 941 
Q 1084 700 1114 631 
Q 1144 563 1211 522 
Q 1278 481 1403 481 
Q 1497 481 1650 503 
z
" transform="scale(0.015625)"/>
       <path id="ArialMT-67" d="M 319 -275 
L 866 -356 
Q 900 -609 1056 -725 
Q 1266 -881 1628 -881 
Q 2019 -881 2231 -725 
Q 2444 -569 2519 -288 
Q 2563 -116 2559 434 
Q 2191 0 1641 0 
Q 956 0 581 494 
Q 206 988 206 1678 
Q 206 2153 378 2554 
Q 550 2956 876 3175 
Q 1203 3394 1644 3394 
Q 2231 3394 2613 2919 
L 2613 3319 
L 3131 3319 
L 3131 450 
Q 3131 -325 2973 -648 
Q 2816 -972 2473 -1159 
Q 2131 -1347 1631 -1347 
Q 1038 -1347 672 -1080 
Q 306 -813 319 -275 
z
M 784 1719 
Q 784 1066 1043 766 
Q 1303 466 1694 466 
Q 2081 466 2343 764 
Q 2606 1063 2606 1700 
Q 2606 2309 2336 2618 
Q 2066 2928 1684 2928 
Q 1309 2928 1046 2623 
Q 784 2319 784 1719 
z
" transform="scale(0.015625)"/>
       <path id="ArialMT-28" d="M 1497 -1347 
Q 1031 -759 709 28 
Q 388 816 388 1659 
Q 388 2403 628 3084 
Q 909 3875 1497 4659 
L 1900 4659 
Q 1522 4009 1400 3731 
Q 1209 3300 1100 2831 
Q 966 2247 966 1656 
Q 966 153 1900 -1347 
L 1497 -1347 
z
" transform="scale(0.015625)"/>
       <path id="ArialMT-25" d="M 372 3481 
Q 372 3972 619 4315 
Q 866 4659 1334 4659 
Q 1766 4659 2048 4351 
Q 2331 4044 2331 3447 
Q 2331 2866 2045 2552 
Q 1759 2238 1341 2238 
Q 925 2238 648 2547 
Q 372 2856 372 3481 
z
M 1350 4272 
Q 1141 4272 1002 4090 
Q 863 3909 863 3425 
Q 863 2984 1003 2804 
Q 1144 2625 1350 2625 
Q 1563 2625 1702 2806 
Q 1841 2988 1841 3469 
Q 1841 3913 1700 4092 
Q 1559 4272 1350 4272 
z
M 1353 -169 
L 3859 4659 
L 4316 4659 
L 1819 -169 
L 1353 -169 
z
M 3334 1075 
Q 3334 1569 3581 1911 
Q 3828 2253 4300 2253 
Q 4731 2253 5014 1945 
Q 5297 1638 5297 1041 
Q 5297 459 5011 145 
Q 4725 -169 4303 -169 
Q 3888 -169 3611 142 
Q 3334 453 3334 1075 
z
M 4316 1866 
Q 4103 1866 3964 1684 
Q 3825 1503 3825 1019 
Q 3825 581 3965 400 
Q 4106 219 4313 219 
Q 4528 219 4667 400 
Q 4806 581 4806 1063 
Q 4806 1506 4665 1686 
Q 4525 1866 4316 1866 
z
" transform="scale(0.015625)"/>
       <path id="ArialMT-29" d="M 791 -1347 
L 388 -1347 
Q 1322 153 1322 1656 
Q 1322 2244 1188 2822 
Q 1081 3291 891 3722 
Q 769 4003 388 4659 
L 791 4659 
Q 1378 3875 1659 3084 
Q 1900 2403 1900 1659 
Q 1900 816 1576 28 
Q 1253 -759 791 -1347 
z
" transform="scale(0.015625)"/>
      </defs>
      <use xlink:href="#ArialMT-50"/>
      <use xlink:href="#ArialMT-65" x="66.699219"/>
      <use xlink:href="#ArialMT-72" x="122.314453"/>
      <use xlink:href="#ArialMT-63" x="155.615234"/>
      <use xlink:href="#ArialMT-65" x="205.615234"/>
      <use xlink:href="#ArialMT-6e" x="261.230469"/>
      <use xlink:href="#ArialMT-74" x="316.845703"/>
      <use xlink:href="#ArialMT-61" x="344.628906"/>
      <use xlink:href="#ArialMT-67" x="400.244141"/>
      <use xlink:href="#ArialMT-65" x="455.859375"/>
      <use xlink:href="#ArialMT-20" x="511.474609"/>
      <use xlink:href="#ArialMT-28" x="539.257812"/>
      <use xlink:href="#ArialMT-25" x="572.558594"/>
      <use xlink:href="#ArialMT-29" x="661.474609"/>
     </g>
    </g>
   </g>
   <g id="patch_9">
    <path d="M 36.988906 248.302354 
L 36.988906 51.84 
" style="fill: none; stroke: #d8d8d8; stroke-linejoin: miter; stroke-linecap: square"/>
   </g>
   <g id="patch_10">
    <path d="M 97.652578 248.302354 
L 97.652578 51.84 
" style="fill: none; stroke: #d8d8d8; stroke-linejoin: miter; stroke-linecap: square"/>
   </g>
   <g id="patch_11">
    <path d="M 36.988906 248.302354 
L 97.652578 248.302354 
" style="fill: none; stroke: #d8d8d8; stroke-linejoin: miter; stroke-linecap: square"/>
   </g>
   <g id="patch_12">
    <path d="M 36.988906 51.84 
L 97.652578 51.84 
" style="fill: none; stroke: #d8d8d8; stroke-linejoin: miter; stroke-linecap: square"/>
   </g>
   <g id="text_12">
    <!-- 294 -->
    <g transform="translate(53.050209 236.206962) rotate(-90) scale(0.07 -0.07)">
     <defs>
      <path id="Arial-BoldMT-32" d="M 3238 816 
L 3238 0 
L 159 0 
Q 209 463 459 877 
Q 709 1291 1447 1975 
Q 2041 2528 2175 2725 
Q 2356 2997 2356 3263 
Q 2356 3556 2198 3714 
Q 2041 3872 1763 3872 
Q 1488 3872 1325 3706 
Q 1163 3541 1138 3156 
L 263 3244 
Q 341 3969 753 4284 
Q 1166 4600 1784 4600 
Q 2463 4600 2850 4234 
Q 3238 3869 3238 3325 
Q 3238 3016 3127 2736 
Q 3016 2456 2775 2150 
Q 2616 1947 2200 1565 
Q 1784 1184 1673 1059 
Q 1563 934 1494 816 
L 3238 816 
z
" transform="scale(0.015625)"/>
      <path id="Arial-BoldMT-39" d="M 291 1059 
L 1141 1153 
Q 1172 894 1303 769 
Q 1434 644 1650 644 
Q 1922 644 2112 894 
Q 2303 1144 2356 1931 
Q 2025 1547 1528 1547 
Q 988 1547 595 1964 
Q 203 2381 203 3050 
Q 203 3747 617 4173 
Q 1031 4600 1672 4600 
Q 2369 4600 2816 4061 
Q 3263 3522 3263 2288 
Q 3263 1031 2797 475 
Q 2331 -81 1584 -81 
Q 1047 -81 715 205 
Q 384 491 291 1059 
z
M 2278 2978 
Q 2278 3403 2083 3637 
Q 1888 3872 1631 3872 
Q 1388 3872 1227 3680 
Q 1066 3488 1066 3050 
Q 1066 2606 1241 2398 
Q 1416 2191 1678 2191 
Q 1931 2191 2104 2391 
Q 2278 2591 2278 2978 
z
" transform="scale(0.015625)"/>
      <path id="Arial-BoldMT-34" d="M 1994 0 
L 1994 922 
L 119 922 
L 119 1691 
L 2106 4600 
L 2844 4600 
L 2844 1694 
L 3413 1694 
L 3413 922 
L 2844 922 
L 2844 0 
L 1994 0 
z
M 1994 1694 
L 1994 3259 
L 941 1694 
L 1994 1694 
z
" transform="scale(0.015625)"/>
     </defs>
     <use xlink:href="#Arial-BoldMT-32"/>
     <use xlink:href="#Arial-BoldMT-39" x="55.615234"/>
     <use xlink:href="#Arial-BoldMT-34" x="111.230469"/>
    </g>
   </g>
   <g id="text_13">
    <!-- 1081 -->
    <g transform="translate(85.220338 240.099619) rotate(-90) scale(0.07 -0.07)">
     <defs>
      <path id="Arial-BoldMT-31" d="M 2519 0 
L 1641 0 
L 1641 3309 
Q 1159 2859 506 2644 
L 506 3441 
Q 850 3553 1253 3867 
Q 1656 4181 1806 4600 
L 2519 4600 
L 2519 0 
z
" transform="scale(0.015625)"/>
      <path id="Arial-BoldMT-30" d="M 1756 4600 
Q 2422 4600 2797 4125 
Q 3244 3563 3244 2259 
Q 3244 959 2794 391 
Q 2422 -78 1756 -78 
Q 1088 -78 678 436 
Q 269 950 269 2269 
Q 269 3563 719 4131 
Q 1091 4600 1756 4600 
z
M 1756 3872 
Q 1597 3872 1472 3770 
Q 1347 3669 1278 3406 
Q 1188 3066 1188 2259 
Q 1188 1453 1269 1151 
Q 1350 850 1473 750 
Q 1597 650 1756 650 
Q 1916 650 2041 751 
Q 2166 853 2234 1116 
Q 2325 1453 2325 2259 
Q 2325 3066 2244 3367 
Q 2163 3669 2039 3770 
Q 1916 3872 1756 3872 
z
" transform="scale(0.015625)"/>
      <path id="Arial-BoldMT-38" d="M 1025 2472 
Q 684 2616 529 2867 
Q 375 3119 375 3419 
Q 375 3931 733 4265 
Q 1091 4600 1750 4600 
Q 2403 4600 2764 4265 
Q 3125 3931 3125 3419 
Q 3125 3100 2959 2851 
Q 2794 2603 2494 2472 
Q 2875 2319 3073 2025 
Q 3272 1731 3272 1347 
Q 3272 713 2867 316 
Q 2463 -81 1791 -81 
Q 1166 -81 750 247 
Q 259 634 259 1309 
Q 259 1681 443 1992 
Q 628 2303 1025 2472 
z
M 1206 3356 
Q 1206 3094 1354 2947 
Q 1503 2800 1750 2800 
Q 2000 2800 2150 2948 
Q 2300 3097 2300 3359 
Q 2300 3606 2151 3754 
Q 2003 3903 1759 3903 
Q 1506 3903 1356 3753 
Q 1206 3603 1206 3356 
z
M 1125 1394 
Q 1125 1031 1311 828 
Q 1497 625 1775 625 
Q 2047 625 2225 820 
Q 2403 1016 2403 1384 
Q 2403 1706 2222 1901 
Q 2041 2097 1763 2097 
Q 1441 2097 1283 1875 
Q 1125 1653 1125 1394 
z
" transform="scale(0.015625)"/>
     </defs>
     <use xlink:href="#Arial-BoldMT-31"/>
     <use xlink:href="#Arial-BoldMT-30" x="55.615234"/>
     <use xlink:href="#Arial-BoldMT-38" x="111.230469"/>
     <use xlink:href="#Arial-BoldMT-31" x="166.845703"/>
    </g>
   </g>
   <g id="text_14">
    <!-- 6472 -->
    <g style="fill: #ffffff" transform="translate(53.050209 177.502725) rotate(-90) scale(0.07 -0.07)">
     <defs>
      <path id="Arial-BoldMT-36" d="M 3247 3459 
L 2397 3366 
Q 2366 3628 2234 3753 
Q 2103 3878 1894 3878 
Q 1616 3878 1423 3628 
Q 1231 3378 1181 2588 
Q 1509 2975 1997 2975 
Q 2547 2975 2939 2556 
Q 3331 2138 3331 1475 
Q 3331 772 2918 347 
Q 2506 -78 1859 -78 
Q 1166 -78 719 461 
Q 272 1000 272 2228 
Q 272 3488 737 4044 
Q 1203 4600 1947 4600 
Q 2469 4600 2811 4308 
Q 3153 4016 3247 3459 
z
M 1256 1544 
Q 1256 1116 1453 883 
Q 1650 650 1903 650 
Q 2147 650 2309 840 
Q 2472 1031 2472 1466 
Q 2472 1913 2297 2120 
Q 2122 2328 1859 2328 
Q 1606 2328 1431 2129 
Q 1256 1931 1256 1544 
z
" transform="scale(0.015625)"/>
      <path id="Arial-BoldMT-37" d="M 272 3703 
L 272 4519 
L 3275 4519 
L 3275 3881 
Q 2903 3516 2518 2831 
Q 2134 2147 1932 1376 
Q 1731 606 1734 0 
L 888 0 
Q 909 950 1279 1937 
Q 1650 2925 2269 3703 
L 272 3703 
z
" transform="scale(0.015625)"/>
     </defs>
     <use xlink:href="#Arial-BoldMT-36"/>
     <use xlink:href="#Arial-BoldMT-34" x="55.615234"/>
     <use xlink:href="#Arial-BoldMT-37" x="111.230469"/>
     <use xlink:href="#Arial-BoldMT-32" x="166.845703"/>
    </g>
   </g>
   <g id="text_15">
    <!-- 19982 -->
    <g style="fill: #ffffff" transform="translate(85.220338 179.449053) rotate(-90) scale(0.07 -0.07)">
     <use xlink:href="#Arial-BoldMT-31"/>
     <use xlink:href="#Arial-BoldMT-39" x="55.615234"/>
     <use xlink:href="#Arial-BoldMT-39" x="111.230469"/>
     <use xlink:href="#Arial-BoldMT-38" x="166.845703"/>
     <use xlink:href="#Arial-BoldMT-32" x="222.460938"/>
    </g>
   </g>
   <g id="text_16">
    <!-- 3486 -->
    <g transform="translate(53.050209 83.809686) rotate(-90) scale(0.07 -0.07)">
     <defs>
      <path id="Arial-BoldMT-33" d="M 241 1216 
L 1091 1319 
Q 1131 994 1309 822 
Q 1488 650 1741 650 
Q 2013 650 2198 856 
Q 2384 1063 2384 1413 
Q 2384 1744 2206 1937 
Q 2028 2131 1772 2131 
Q 1603 2131 1369 2066 
L 1466 2781 
Q 1822 2772 2009 2936 
Q 2197 3100 2197 3372 
Q 2197 3603 2059 3740 
Q 1922 3878 1694 3878 
Q 1469 3878 1309 3722 
Q 1150 3566 1116 3266 
L 306 3403 
Q 391 3819 561 4067 
Q 731 4316 1036 4458 
Q 1341 4600 1719 4600 
Q 2366 4600 2756 4188 
Q 3078 3850 3078 3425 
Q 3078 2822 2419 2463 
Q 2813 2378 3048 2084 
Q 3284 1791 3284 1375 
Q 3284 772 2843 347 
Q 2403 -78 1747 -78 
Q 1125 -78 715 280 
Q 306 638 241 1216 
z
" transform="scale(0.015625)"/>
     </defs>
     <use xlink:href="#Arial-BoldMT-33"/>
     <use xlink:href="#Arial-BoldMT-34" x="55.615234"/>
     <use xlink:href="#Arial-BoldMT-38" x="111.230469"/>
     <use xlink:href="#Arial-BoldMT-36" x="166.845703"/>
    </g>
   </g>
   <g id="text_17">
    <!-- 12943 -->
    <g transform="translate(85.220338 79.823652) rotate(-90) scale(0.07 -0.07)">
     <use xlink:href="#Arial-BoldMT-31"/>
     <use xlink:href="#Arial-BoldMT-32" x="55.615234"/>
     <use xlink:href="#Arial-BoldMT-39" x="111.230469"/>
     <use xlink:href="#Arial-BoldMT-34" x="166.845703"/>
     <use xlink:href="#Arial-BoldMT-33" x="222.460938"/>
    </g>
   </g>
   <g id="text_18">
    <!-- Comet -->
    <g transform="translate(57.012695 45.84) scale(0.07 -0.07)">
     <defs>
      <path id="ArialMT-6f" d="M 213 1659 
Q 213 2581 725 3025 
Q 1153 3394 1769 3394 
Q 2453 3394 2887 2945 
Q 3322 2497 3322 1706 
Q 3322 1066 3130 698 
Q 2938 331 2570 128 
Q 2203 -75 1769 -75 
Q 1072 -75 642 372 
Q 213 819 213 1659 
z
M 791 1659 
Q 791 1022 1069 705 
Q 1347 388 1769 388 
Q 2188 388 2466 706 
Q 2744 1025 2744 1678 
Q 2744 2294 2464 2611 
Q 2184 2928 1769 2928 
Q 1347 2928 1069 2612 
Q 791 2297 791 1659 
z
" transform="scale(0.015625)"/>
      <path id="ArialMT-6d" d="M 422 0 
L 422 3319 
L 925 3319 
L 925 2853 
Q 1081 3097 1340 3245 
Q 1600 3394 1931 3394 
Q 2300 3394 2536 3241 
Q 2772 3088 2869 2813 
Q 3263 3394 3894 3394 
Q 4388 3394 4653 3120 
Q 4919 2847 4919 2278 
L 4919 0 
L 4359 0 
L 4359 2091 
Q 4359 2428 4304 2576 
Q 4250 2725 4106 2815 
Q 3963 2906 3769 2906 
Q 3419 2906 3187 2673 
Q 2956 2441 2956 1928 
L 2956 0 
L 2394 0 
L 2394 2156 
Q 2394 2531 2256 2718 
Q 2119 2906 1806 2906 
Q 1569 2906 1367 2781 
Q 1166 2656 1075 2415 
Q 984 2175 984 1722 
L 984 0 
L 422 0 
z
" transform="scale(0.015625)"/>
     </defs>
     <use xlink:href="#ArialMT-43"/>
     <use xlink:href="#ArialMT-6f" x="72.216797"/>
     <use xlink:href="#ArialMT-6d" x="127.832031"/>
     <use xlink:href="#ArialMT-65" x="211.132812"/>
     <use xlink:href="#ArialMT-74" x="266.748047"/>
    </g>
   </g>
  </g>
  <g id="axes_2">
   <g id="patch_13">
    <path d="M 100.685762 248.302354 
L 161.349434 248.302354 
L 161.349434 51.84 
L 100.685762 51.84 
z
" style="fill: #ffffff"/>
   </g>
   <g id="patch_14">
    <path d="M 103.443201 218.833001 
L 126.421865 218.833001 
L 126.421865 222.876749 
L 103.443201 222.876749 
z
" clip-path="url(#p98e320da3c)" style="fill: #7f7f7f; stroke: #000000; stroke-width: 0.5; stroke-linejoin: miter"/>
   </g>
   <g id="patch_15">
    <path d="M 135.61333 218.833001 
L 158.591994 218.833001 
L 158.591994 230.269886 
L 135.61333 230.269886 
z
" clip-path="url(#p98e320da3c)" style="fill: #7f7f7f; stroke: #000000; stroke-width: 0.5; stroke-linejoin: miter"/>
   </g>
   <g id="patch_16">
    <path d="M 103.443201 218.833001 
L 126.421865 218.833001 
L 126.421865 120.601824 
L 103.443201 120.601824 
z
" clip-path="url(#p98e320da3c)" style="fill: #1f4e8c; stroke: #000000; stroke-width: 0.5; stroke-linejoin: miter"/>
   </g>
   <g id="patch_17">
    <path d="M 135.61333 218.833001 
L 158.591994 218.833001 
L 158.591994 120.601824 
L 135.61333 120.601824 
z
" clip-path="url(#p98e320da3c)" style="fill: #1f4e8c; stroke: #000000; stroke-width: 0.5; stroke-linejoin: miter"/>
   </g>
   <g id="patch_18">
    <path d="M 103.443201 120.601824 
L 126.421865 120.601824 
L 126.421865 97.891307 
L 103.443201 97.891307 
z
" clip-path="url(#p98e320da3c)" style="fill: #e58b00; stroke: #000000; stroke-width: 0.5; stroke-linejoin: miter"/>
   </g>
   <g id="patch_19">
    <path d="M 135.61333 120.601824 
L 158.591994 120.601824 
L 158.591994 101.892129 
L 135.61333 101.892129 
z
" clip-path="url(#p98e320da3c)" style="fill: #e58b00; stroke: #000000; stroke-width: 0.5; stroke-linejoin: miter"/>
   </g>
   <g id="matplotlib.axis_3">
    <g id="xtick_3">
     <g id="line2d_11">
      <g>
       <use xlink:href="#m3c630759c0" x="114.932533" y="248.302354" style="stroke: #000000"/>
      </g>
     </g>
     <g id="text_19">
      <!-- label free -->
      <g transform="translate(93.588294 279.205767) rotate(-45) scale(0.07 -0.07)">
       <use xlink:href="#ArialMT-6c"/>
       <use xlink:href="#ArialMT-61" x="22.216797"/>
       <use xlink:href="#ArialMT-62" x="77.832031"/>
       <use xlink:href="#ArialMT-65" x="133.447266"/>
       <use xlink:href="#ArialMT-6c" x="189.0625"/>
       <use xlink:href="#ArialMT-20" x="211.279297"/>
       <use xlink:href="#ArialMT-66" x="239.0625"/>
       <use xlink:href="#ArialMT-72" x="266.845703"/>
       <use xlink:href="#ArialMT-65" x="300.146484"/>
       <use xlink:href="#ArialMT-65" x="355.761719"/>
      </g>
     </g>
    </g>
    <g id="xtick_4">
     <g id="line2d_12">
      <g>
       <use xlink:href="#m3c630759c0" x="147.102662" y="248.302354" style="stroke: #000000"/>
      </g>
     </g>
     <g id="text_20">
      <!-- UCEC -->
      <g transform="translate(132.093326 272.870864) rotate(-45) scale(0.07 -0.07)">
       <use xlink:href="#ArialMT-55"/>
       <use xlink:href="#ArialMT-43" x="72.216797"/>
       <use xlink:href="#ArialMT-45" x="144.433594"/>
       <use xlink:href="#ArialMT-43" x="211.132812"/>
      </g>
     </g>
    </g>
   </g>
   <g id="matplotlib.axis_4">
    <g id="ytick_9">
     <g id="line2d_13">
      <g>
       <use xlink:href="#m410d99f561" x="100.685762" y="243.390795" style="stroke: #000000"/>
      </g>
     </g>
    </g>
    <g id="ytick_10">
     <g id="line2d_14">
      <g>
       <use xlink:href="#m410d99f561" x="100.685762" y="218.833001" style="stroke: #000000"/>
      </g>
     </g>
    </g>
    <g id="ytick_11">
     <g id="line2d_15">
      <g>
       <use xlink:href="#m410d99f561" x="100.685762" y="194.275207" style="stroke: #000000"/>
      </g>
     </g>
    </g>
    <g id="ytick_12">
     <g id="line2d_16">
      <g>
       <use xlink:href="#m410d99f561" x="100.685762" y="169.717412" style="stroke: #000000"/>
      </g>
     </g>
    </g>
    <g id="ytick_13">
     <g id="line2d_17">
      <g>
       <use xlink:href="#m410d99f561" x="100.685762" y="145.159618" style="stroke: #000000"/>
      </g>
     </g>
    </g>
    <g id="ytick_14">
     <g id="line2d_18">
      <g>
       <use xlink:href="#m410d99f561" x="100.685762" y="120.601824" style="stroke: #000000"/>
      </g>
     </g>
    </g>
    <g id="ytick_15">
     <g id="line2d_19">
      <g>
       <use xlink:href="#m410d99f561" x="100.685762" y="96.04403" style="stroke: #000000"/>
      </g>
     </g>
    </g>
    <g id="ytick_16">
     <g id="line2d_20">
      <g>
       <use xlink:href="#m410d99f561" x="100.685762" y="71.486235" style="stroke: #000000"/>
      </g>
     </g>
    </g>
   </g>
   <g id="patch_20">
    <path d="M 100.685762 248.302354 
L 100.685762 51.84 
" style="fill: none; stroke: #d8d8d8; stroke-linejoin: miter; stroke-linecap: square"/>
   </g>
   <g id="patch_21">
    <path d="M 161.349434 248.302354 
L 161.349434 51.84 
" style="fill: none; stroke: #d8d8d8; stroke-linejoin: miter; stroke-linecap: square"/>
   </g>
   <g id="patch_22">
    <path d="M 100.685762 248.302354 
L 161.349434 248.302354 
" style="fill: none; stroke: #d8d8d8; stroke-linejoin: miter; stroke-linecap: square"/>
   </g>
   <g id="patch_23">
    <path d="M 100.685762 51.84 
L 161.349434 51.84 
" style="fill: none; stroke: #d8d8d8; stroke-linejoin: miter; stroke-linecap: square"/>
   </g>
   <g id="text_21">
    <!-- 469 -->
    <g transform="translate(116.747064 235.590521) rotate(-90) scale(0.07 -0.07)">
     <use xlink:href="#Arial-BoldMT-34"/>
     <use xlink:href="#Arial-BoldMT-36" x="55.615234"/>
     <use xlink:href="#Arial-BoldMT-39" x="111.230469"/>
    </g>
   </g>
   <g id="text_22">
    <!-- 3793 -->
    <g transform="translate(148.917193 239.483177) rotate(-90) scale(0.07 -0.07)">
     <use xlink:href="#Arial-BoldMT-33"/>
     <use xlink:href="#Arial-BoldMT-37" x="55.615234"/>
     <use xlink:href="#Arial-BoldMT-39" x="111.230469"/>
     <use xlink:href="#Arial-BoldMT-33" x="166.845703"/>
    </g>
   </g>
   <g id="text_23">
    <!-- 8290 -->
    <g style="fill: #ffffff" transform="translate(116.747064 177.502725) rotate(-90) scale(0.07 -0.07)">
     <use xlink:href="#Arial-BoldMT-38"/>
     <use xlink:href="#Arial-BoldMT-32" x="55.615234"/>
     <use xlink:href="#Arial-BoldMT-39" x="111.230469"/>
     <use xlink:href="#Arial-BoldMT-30" x="166.845703"/>
    </g>
   </g>
   <g id="text_24">
    <!-- 22580 -->
    <g style="fill: #ffffff" transform="translate(148.917193 179.449053) rotate(-90) scale(0.07 -0.07)">
     <defs>
      <path id="Arial-BoldMT-35" d="M 284 1178 
L 1159 1269 
Q 1197 972 1381 798 
Q 1566 625 1806 625 
Q 2081 625 2272 848 
Q 2463 1072 2463 1522 
Q 2463 1944 2273 2155 
Q 2084 2366 1781 2366 
Q 1403 2366 1103 2031 
L 391 2134 
L 841 4519 
L 3163 4519 
L 3163 3697 
L 1506 3697 
L 1369 2919 
Q 1663 3066 1969 3066 
Q 2553 3066 2959 2641 
Q 3366 2216 3366 1538 
Q 3366 972 3038 528 
Q 2591 -78 1797 -78 
Q 1163 -78 763 262 
Q 363 603 284 1178 
z
" transform="scale(0.015625)"/>
     </defs>
     <use xlink:href="#Arial-BoldMT-32"/>
     <use xlink:href="#Arial-BoldMT-32" x="55.615234"/>
     <use xlink:href="#Arial-BoldMT-35" x="111.230469"/>
     <use xlink:href="#Arial-BoldMT-38" x="166.845703"/>
     <use xlink:href="#Arial-BoldMT-30" x="222.460938"/>
    </g>
   </g>
   <g id="text_25">
    <!-- 2634 -->
    <g transform="translate(116.747064 94.867765) rotate(-90) scale(0.07 -0.07)">
     <use xlink:href="#Arial-BoldMT-32"/>
     <use xlink:href="#Arial-BoldMT-36" x="55.615234"/>
     <use xlink:href="#Arial-BoldMT-33" x="111.230469"/>
     <use xlink:href="#Arial-BoldMT-34" x="166.845703"/>
    </g>
   </g>
   <g id="text_26">
    <!-- 6205 -->
    <g transform="translate(148.917193 98.868586) rotate(-90) scale(0.07 -0.07)">
     <use xlink:href="#Arial-BoldMT-36"/>
     <use xlink:href="#Arial-BoldMT-32" x="55.615234"/>
     <use xlink:href="#Arial-BoldMT-30" x="111.230469"/>
     <use xlink:href="#Arial-BoldMT-35" x="166.845703"/>
    </g>
   </g>
   <g id="text_27">
    <!-- MaxQuant -->
    <g transform="translate(114.872207 45.84) scale(0.07 -0.07)">
     <defs>
      <path id="ArialMT-4d" d="M 475 0 
L 475 4581 
L 1388 4581 
L 2472 1338 
Q 2622 884 2691 659 
Q 2769 909 2934 1394 
L 4031 4581 
L 4847 4581 
L 4847 0 
L 4263 0 
L 4263 3834 
L 2931 0 
L 2384 0 
L 1059 3900 
L 1059 0 
L 475 0 
z
" transform="scale(0.015625)"/>
      <path id="ArialMT-78" d="M 47 0 
L 1259 1725 
L 138 3319 
L 841 3319 
L 1350 2541 
Q 1494 2319 1581 2169 
Q 1719 2375 1834 2534 
L 2394 3319 
L 3066 3319 
L 1919 1756 
L 3153 0 
L 2463 0 
L 1781 1031 
L 1600 1309 
L 728 0 
L 47 0 
z
" transform="scale(0.015625)"/>
      <path id="ArialMT-51" d="M 3966 491 
Q 4388 200 4744 66 
L 4566 -356 
Q 4072 -178 3581 206 
Q 3072 -78 2456 -78 
Q 1834 -78 1328 222 
Q 822 522 548 1065 
Q 275 1609 275 2291 
Q 275 2969 550 3525 
Q 825 4081 1333 4372 
Q 1841 4663 2469 4663 
Q 3103 4663 3612 4361 
Q 4122 4059 4389 3517 
Q 4656 2975 4656 2294 
Q 4656 1728 4484 1276 
Q 4313 825 3966 491 
z
M 2631 1266 
Q 3156 1119 3497 828 
Q 4031 1316 4031 2294 
Q 4031 2850 3842 3265 
Q 3653 3681 3289 3911 
Q 2925 4141 2472 4141 
Q 1794 4141 1347 3677 
Q 900 3213 900 2291 
Q 900 1397 1342 919 
Q 1784 441 2472 441 
Q 2797 441 3084 563 
Q 2800 747 2484 825 
L 2631 1266 
z
" transform="scale(0.015625)"/>
      <path id="ArialMT-75" d="M 2597 0 
L 2597 488 
Q 2209 -75 1544 -75 
Q 1250 -75 995 37 
Q 741 150 617 320 
Q 494 491 444 738 
Q 409 903 409 1263 
L 409 3319 
L 972 3319 
L 972 1478 
Q 972 1038 1006 884 
Q 1059 663 1231 536 
Q 1403 409 1656 409 
Q 1909 409 2131 539 
Q 2353 669 2445 892 
Q 2538 1116 2538 1541 
L 2538 3319 
L 3100 3319 
L 3100 0 
L 2597 0 
z
" transform="scale(0.015625)"/>
     </defs>
     <use xlink:href="#ArialMT-4d"/>
     <use xlink:href="#ArialMT-61" x="83.300781"/>
     <use xlink:href="#ArialMT-78" x="138.916016"/>
     <use xlink:href="#ArialMT-51" x="188.916016"/>
     <use xlink:href="#ArialMT-75" x="266.699219"/>
     <use xlink:href="#ArialMT-61" x="322.314453"/>
     <use xlink:href="#ArialMT-6e" x="377.929688"/>
     <use xlink:href="#ArialMT-74" x="433.544922"/>
    </g>
   </g>
  </g>
  <g id="axes_3">
   <g id="patch_24">
    <path d="M 164.382617 248.302354 
L 225.046289 248.302354 
L 225.046289 51.84 
L 164.382617 51.84 
z
" style="fill: #ffffff"/>
   </g>
   <g id="patch_25">
    <path d="M 167.140057 218.833001 
L 190.11872 218.833001 
L 190.11872 221.716701 
L 167.140057 221.716701 
z
" clip-path="url(#p0974900ee5)" style="fill: #7f7f7f; stroke: #000000; stroke-width: 0.5; stroke-linejoin: miter"/>
   </g>
   <g id="patch_26">
    <path d="M 199.310186 218.833001 
L 222.288849 218.833001 
L 222.288849 221.855499 
L 199.310186 221.855499 
z
" clip-path="url(#p0974900ee5)" style="fill: #7f7f7f; stroke: #000000; stroke-width: 0.5; stroke-linejoin: miter"/>
   </g>
   <g id="patch_27">
    <path d="M 167.140057 218.833001 
L 190.11872 218.833001 
L 190.11872 120.601824 
L 167.140057 120.601824 
z
" clip-path="url(#p0974900ee5)" style="fill: #1f4e8c; stroke: #000000; stroke-width: 0.5; stroke-linejoin: miter"/>
   </g>
   <g id="patch_28">
    <path d="M 199.310186 218.833001 
L 222.288849 218.833001 
L 222.288849 120.601824 
L 199.310186 120.601824 
z
" clip-path="url(#p0974900ee5)" style="fill: #1f4e8c; stroke: #000000; stroke-width: 0.5; stroke-linejoin: miter"/>
   </g>
   <g id="patch_29">
    <path d="M 167.140057 120.601824 
L 190.11872 120.601824 
L 190.11872 90.096399 
L 167.140057 90.096399 
z
" clip-path="url(#p0974900ee5)" style="fill: #e58b00; stroke: #000000; stroke-width: 0.5; stroke-linejoin: miter"/>
   </g>
   <g id="patch_30">
    <path d="M 199.310186 120.601824 
L 222.288849 120.601824 
L 222.288849 85.951731 
L 199.310186 85.951731 
z
" clip-path="url(#p0974900ee5)" style="fill: #e58b00; stroke: #000000; stroke-width: 0.5; stroke-linejoin: miter"/>
   </g>
   <g id="matplotlib.axis_5">
    <g id="xtick_5">
     <g id="line2d_21">
      <g>
       <use xlink:href="#m3c630759c0" x="178.629389" y="248.302354" style="stroke: #000000"/>
      </g>
     </g>
     <g id="text_28">
      <!-- label free -->
      <g transform="translate(157.285149 279.205767) rotate(-45) scale(0.07 -0.07)">
       <use xlink:href="#ArialMT-6c"/>
       <use xlink:href="#ArialMT-61" x="22.216797"/>
       <use xlink:href="#ArialMT-62" x="77.832031"/>
       <use xlink:href="#ArialMT-65" x="133.447266"/>
       <use xlink:href="#ArialMT-6c" x="189.0625"/>
       <use xlink:href="#ArialMT-20" x="211.279297"/>
       <use xlink:href="#ArialMT-66" x="239.0625"/>
       <use xlink:href="#ArialMT-72" x="266.845703"/>
       <use xlink:href="#ArialMT-65" x="300.146484"/>
       <use xlink:href="#ArialMT-65" x="355.761719"/>
      </g>
     </g>
    </g>
    <g id="xtick_6">
     <g id="line2d_22">
      <g>
       <use xlink:href="#m3c630759c0" x="210.799518" y="248.302354" style="stroke: #000000"/>
      </g>
     </g>
     <g id="text_29">
      <!-- UCEC -->
      <g transform="translate(195.790182 272.870864) rotate(-45) scale(0.07 -0.07)">
       <use xlink:href="#ArialMT-55"/>
       <use xlink:href="#ArialMT-43" x="72.216797"/>
       <use xlink:href="#ArialMT-45" x="144.433594"/>
       <use xlink:href="#ArialMT-43" x="211.132812"/>
      </g>
     </g>
    </g>
   </g>
   <g id="matplotlib.axis_6">
    <g id="ytick_17">
     <g id="line2d_23">
      <g>
       <use xlink:href="#m410d99f561" x="164.382617" y="243.390795" style="stroke: #000000"/>
      </g>
     </g>
    </g>
    <g id="ytick_18">
     <g id="line2d_24">
      <g>
       <use xlink:href="#m410d99f561" x="164.382617" y="218.833001" style="stroke: #000000"/>
      </g>
     </g>
    </g>
    <g id="ytick_19">
     <g id="line2d_25">
      <g>
       <use xlink:href="#m410d99f561" x="164.382617" y="194.275207" style="stroke: #000000"/>
      </g>
     </g>
    </g>
    <g id="ytick_20">
     <g id="line2d_26">
      <g>
       <use xlink:href="#m410d99f561" x="164.382617" y="169.717412" style="stroke: #000000"/>
      </g>
     </g>
    </g>
    <g id="ytick_21">
     <g id="line2d_27">
      <g>
       <use xlink:href="#m410d99f561" x="164.382617" y="145.159618" style="stroke: #000000"/>
      </g>
     </g>
    </g>
    <g id="ytick_22">
     <g id="line2d_28">
      <g>
       <use xlink:href="#m410d99f561" x="164.382617" y="120.601824" style="stroke: #000000"/>
      </g>
     </g>
    </g>
    <g id="ytick_23">
     <g id="line2d_29">
      <g>
       <use xlink:href="#m410d99f561" x="164.382617" y="96.04403" style="stroke: #000000"/>
      </g>
     </g>
    </g>
    <g id="ytick_24">
     <g id="line2d_30">
      <g>
       <use xlink:href="#m410d99f561" x="164.382617" y="71.486235" style="stroke: #000000"/>
      </g>
     </g>
    </g>
   </g>
   <g id="patch_31">
    <path d="M 164.382617 248.302354 
L 164.382617 51.84 
" style="fill: none; stroke: #d8d8d8; stroke-linejoin: miter; stroke-linecap: square"/>
   </g>
   <g id="patch_32">
    <path d="M 225.046289 248.302354 
L 225.046289 51.84 
" style="fill: none; stroke: #d8d8d8; stroke-linejoin: miter; stroke-linecap: square"/>
   </g>
   <g id="patch_33">
    <path d="M 164.382617 248.302354 
L 225.046289 248.302354 
" style="fill: none; stroke: #d8d8d8; stroke-linejoin: miter; stroke-linecap: square"/>
   </g>
   <g id="patch_34">
    <path d="M 164.382617 51.84 
L 225.046289 51.84 
" style="fill: none; stroke: #d8d8d8; stroke-linejoin: miter; stroke-linecap: square"/>
   </g>
   <g id="text_30">
    <!-- 280 -->
    <g transform="translate(180.44392 236.091983) rotate(-90) scale(0.07 -0.07)">
     <use xlink:href="#Arial-BoldMT-32"/>
     <use xlink:href="#Arial-BoldMT-38" x="55.615234"/>
     <use xlink:href="#Arial-BoldMT-30" x="111.230469"/>
    </g>
   </g>
   <g id="text_31">
    <!-- 946 -->
    <g transform="translate(212.614049 236.091983) rotate(-90) scale(0.07 -0.07)">
     <use xlink:href="#Arial-BoldMT-39"/>
     <use xlink:href="#Arial-BoldMT-34" x="55.615234"/>
     <use xlink:href="#Arial-BoldMT-36" x="111.230469"/>
    </g>
   </g>
   <g id="text_32">
    <!-- 6296 -->
    <g style="fill: #ffffff" transform="translate(180.44392 177.502725) rotate(-90) scale(0.07 -0.07)">
     <use xlink:href="#Arial-BoldMT-36"/>
     <use xlink:href="#Arial-BoldMT-32" x="55.615234"/>
     <use xlink:href="#Arial-BoldMT-39" x="111.230469"/>
     <use xlink:href="#Arial-BoldMT-36" x="166.845703"/>
    </g>
   </g>
   <g id="text_33">
    <!-- 18954 -->
    <g style="fill: #ffffff" transform="translate(212.614049 179.449053) rotate(-90) scale(0.07 -0.07)">
     <use xlink:href="#Arial-BoldMT-31"/>
     <use xlink:href="#Arial-BoldMT-38" x="55.615234"/>
     <use xlink:href="#Arial-BoldMT-39" x="111.230469"/>
     <use xlink:href="#Arial-BoldMT-35" x="166.845703"/>
     <use xlink:href="#Arial-BoldMT-34" x="222.460938"/>
    </g>
   </g>
   <g id="text_34">
    <!-- 2962 -->
    <g transform="translate(180.44392 86.774367) rotate(-90) scale(0.07 -0.07)">
     <use xlink:href="#Arial-BoldMT-32"/>
     <use xlink:href="#Arial-BoldMT-39" x="55.615234"/>
     <use xlink:href="#Arial-BoldMT-36" x="111.230469"/>
     <use xlink:href="#Arial-BoldMT-32" x="166.845703"/>
    </g>
   </g>
   <g id="text_35">
    <!-- 10845 -->
    <g transform="translate(212.614049 82.629699) rotate(-90) scale(0.07 -0.07)">
     <use xlink:href="#Arial-BoldMT-31"/>
     <use xlink:href="#Arial-BoldMT-30" x="55.615234"/>
     <use xlink:href="#Arial-BoldMT-38" x="111.230469"/>
     <use xlink:href="#Arial-BoldMT-34" x="166.845703"/>
     <use xlink:href="#Arial-BoldMT-35" x="222.460938"/>
    </g>
   </g>
   <g id="text_36">
    <!-- MSGF+ -->
    <g transform="translate(182.560156 45.84) scale(0.07 -0.07)">
     <defs>
      <path id="ArialMT-53" d="M 288 1472 
L 859 1522 
Q 900 1178 1048 958 
Q 1197 738 1509 602 
Q 1822 466 2213 466 
Q 2559 466 2825 569 
Q 3091 672 3220 851 
Q 3350 1031 3350 1244 
Q 3350 1459 3225 1620 
Q 3100 1781 2813 1891 
Q 2628 1963 1997 2114 
Q 1366 2266 1113 2400 
Q 784 2572 623 2826 
Q 463 3081 463 3397 
Q 463 3744 659 4045 
Q 856 4347 1234 4503 
Q 1613 4659 2075 4659 
Q 2584 4659 2973 4495 
Q 3363 4331 3572 4012 
Q 3781 3694 3797 3291 
L 3216 3247 
Q 3169 3681 2898 3903 
Q 2628 4125 2100 4125 
Q 1550 4125 1298 3923 
Q 1047 3722 1047 3438 
Q 1047 3191 1225 3031 
Q 1400 2872 2139 2705 
Q 2878 2538 3153 2413 
Q 3553 2228 3743 1945 
Q 3934 1663 3934 1294 
Q 3934 928 3725 604 
Q 3516 281 3123 101 
Q 2731 -78 2241 -78 
Q 1619 -78 1198 103 
Q 778 284 539 648 
Q 300 1013 288 1472 
z
" transform="scale(0.015625)"/>
      <path id="ArialMT-47" d="M 2638 1797 
L 2638 2334 
L 4578 2338 
L 4578 638 
Q 4131 281 3656 101 
Q 3181 -78 2681 -78 
Q 2006 -78 1454 211 
Q 903 500 622 1047 
Q 341 1594 341 2269 
Q 341 2938 620 3517 
Q 900 4097 1425 4378 
Q 1950 4659 2634 4659 
Q 3131 4659 3532 4498 
Q 3934 4338 4162 4050 
Q 4391 3763 4509 3300 
L 3963 3150 
Q 3859 3500 3706 3700 
Q 3553 3900 3268 4020 
Q 2984 4141 2638 4141 
Q 2222 4141 1919 4014 
Q 1616 3888 1430 3681 
Q 1244 3475 1141 3228 
Q 966 2803 966 2306 
Q 966 1694 1177 1281 
Q 1388 869 1791 669 
Q 2194 469 2647 469 
Q 3041 469 3416 620 
Q 3791 772 3984 944 
L 3984 1797 
L 2638 1797 
z
" transform="scale(0.015625)"/>
      <path id="ArialMT-46" d="M 525 0 
L 525 4581 
L 3616 4581 
L 3616 4041 
L 1131 4041 
L 1131 2622 
L 3281 2622 
L 3281 2081 
L 1131 2081 
L 1131 0 
L 525 0 
z
" transform="scale(0.015625)"/>
      <path id="ArialMT-2b" d="M 1603 741 
L 1603 1997 
L 356 1997 
L 356 2522 
L 1603 2522 
L 1603 3769 
L 2134 3769 
L 2134 2522 
L 3381 2522 
L 3381 1997 
L 2134 1997 
L 2134 741 
L 1603 741 
z
" transform="scale(0.015625)"/>
     </defs>
     <use xlink:href="#ArialMT-4d"/>
     <use xlink:href="#ArialMT-53" x="83.300781"/>
     <use xlink:href="#ArialMT-47" x="150"/>
     <use xlink:href="#ArialMT-46" x="227.783203"/>
     <use xlink:href="#ArialMT-2b" x="288.867188"/>
    </g>
   </g>
  </g>
  <g id="axes_4">
   <g id="patch_35">
    <path d="M 228.079473 248.302354 
L 288.743145 248.302354 
L 288.743145 51.84 
L 228.079473 51.84 
z
" style="fill: #ffffff"/>
   </g>
   <g id="patch_36">
    <path d="M 230.836912 218.833001 
L 253.815576 218.833001 
L 253.815576 221.792606 
L 230.836912 221.792606 
z
" clip-path="url(#pfcd523bfc0)" style="fill: #7f7f7f; stroke: #000000; stroke-width: 0.5; stroke-linejoin: miter"/>
   </g>
   <g id="patch_37">
    <path d="M 263.007041 218.833001 
L 285.985705 218.833001 
L 285.985705 221.826959 
L 263.007041 221.826959 
z
" clip-path="url(#pfcd523bfc0)" style="fill: #7f7f7f; stroke: #000000; stroke-width: 0.5; stroke-linejoin: miter"/>
   </g>
   <g id="patch_38">
    <path d="M 230.836912 218.833001 
L 253.815576 218.833001 
L 253.815576 120.601824 
L 230.836912 120.601824 
z
" clip-path="url(#pfcd523bfc0)" style="fill: #1f4e8c; stroke: #000000; stroke-width: 0.5; stroke-linejoin: miter"/>
   </g>
   <g id="patch_39">
    <path d="M 263.007041 218.833001 
L 285.985705 218.833001 
L 285.985705 120.601824 
L 263.007041 120.601824 
z
" clip-path="url(#pfcd523bfc0)" style="fill: #1f4e8c; stroke: #000000; stroke-width: 0.5; stroke-linejoin: miter"/>
   </g>
   <g id="patch_40">
    <path d="M 230.836912 120.601824 
L 253.815576 120.601824 
L 253.815576 86.937552 
L 230.836912 86.937552 
z
" clip-path="url(#pfcd523bfc0)" style="fill: #e58b00; stroke: #000000; stroke-width: 0.5; stroke-linejoin: miter"/>
   </g>
   <g id="patch_41">
    <path d="M 263.007041 120.601824 
L 285.985705 120.601824 
L 285.985705 82.389554 
L 263.007041 82.389554 
z
" clip-path="url(#pfcd523bfc0)" style="fill: #e58b00; stroke: #000000; stroke-width: 0.5; stroke-linejoin: miter"/>
   </g>
   <g id="matplotlib.axis_7">
    <g id="xtick_7">
     <g id="line2d_31">
      <g>
       <use xlink:href="#m3c630759c0" x="242.326244" y="248.302354" style="stroke: #000000"/>
      </g>
     </g>
     <g id="text_37">
      <!-- label free -->
      <g transform="translate(220.982005 279.205767) rotate(-45) scale(0.07 -0.07)">
       <use xlink:href="#ArialMT-6c"/>
       <use xlink:href="#ArialMT-61" x="22.216797"/>
       <use xlink:href="#ArialMT-62" x="77.832031"/>
       <use xlink:href="#ArialMT-65" x="133.447266"/>
       <use xlink:href="#ArialMT-6c" x="189.0625"/>
       <use xlink:href="#ArialMT-20" x="211.279297"/>
       <use xlink:href="#ArialMT-66" x="239.0625"/>
       <use xlink:href="#ArialMT-72" x="266.845703"/>
       <use xlink:href="#ArialMT-65" x="300.146484"/>
       <use xlink:href="#ArialMT-65" x="355.761719"/>
      </g>
     </g>
    </g>
    <g id="xtick_8">
     <g id="line2d_32">
      <g>
       <use xlink:href="#m3c630759c0" x="274.496373" y="248.302354" style="stroke: #000000"/>
      </g>
     </g>
     <g id="text_38">
      <!-- UCEC -->
      <g transform="translate(259.487037 272.870864) rotate(-45) scale(0.07 -0.07)">
       <use xlink:href="#ArialMT-55"/>
       <use xlink:href="#ArialMT-43" x="72.216797"/>
       <use xlink:href="#ArialMT-45" x="144.433594"/>
       <use xlink:href="#ArialMT-43" x="211.132812"/>
      </g>
     </g>
    </g>
   </g>
   <g id="matplotlib.axis_8">
    <g id="ytick_25">
     <g id="line2d_33">
      <g>
       <use xlink:href="#m410d99f561" x="228.079473" y="243.390795" style="stroke: #000000"/>
      </g>
     </g>
    </g>
    <g id="ytick_26">
     <g id="line2d_34">
      <g>
       <use xlink:href="#m410d99f561" x="228.079473" y="218.833001" style="stroke: #000000"/>
      </g>
     </g>
    </g>
    <g id="ytick_27">
     <g id="line2d_35">
      <g>
       <use xlink:href="#m410d99f561" x="228.079473" y="194.275207" style="stroke: #000000"/>
      </g>
     </g>
    </g>
    <g id="ytick_28">
     <g id="line2d_36">
      <g>
       <use xlink:href="#m410d99f561" x="228.079473" y="169.717412" style="stroke: #000000"/>
      </g>
     </g>
    </g>
    <g id="ytick_29">
     <g id="line2d_37">
      <g>
       <use xlink:href="#m410d99f561" x="228.079473" y="145.159618" style="stroke: #000000"/>
      </g>
     </g>
    </g>
    <g id="ytick_30">
     <g id="line2d_38">
      <g>
       <use xlink:href="#m410d99f561" x="228.079473" y="120.601824" style="stroke: #000000"/>
      </g>
     </g>
    </g>
    <g id="ytick_31">
     <g id="line2d_39">
      <g>
       <use xlink:href="#m410d99f561" x="228.079473" y="96.04403" style="stroke: #000000"/>
      </g>
     </g>
    </g>
    <g id="ytick_32">
     <g id="line2d_40">
      <g>
       <use xlink:href="#m410d99f561" x="228.079473" y="71.486235" style="stroke: #000000"/>
      </g>
     </g>
    </g>
   </g>
   <g id="patch_42">
    <path d="M 228.079473 248.302354 
L 228.079473 51.84 
" style="fill: none; stroke: #d8d8d8; stroke-linejoin: miter; stroke-linecap: square"/>
   </g>
   <g id="patch_43">
    <path d="M 288.743145 248.302354 
L 288.743145 51.84 
" style="fill: none; stroke: #d8d8d8; stroke-linejoin: miter; stroke-linecap: square"/>
   </g>
   <g id="patch_44">
    <path d="M 228.079473 248.302354 
L 288.743145 248.302354 
" style="fill: none; stroke: #d8d8d8; stroke-linejoin: miter; stroke-linecap: square"/>
   </g>
   <g id="patch_45">
    <path d="M 228.079473 51.84 
L 288.743145 51.84 
" style="fill: none; stroke: #d8d8d8; stroke-linejoin: miter; stroke-linecap: square"/>
   </g>
   <g id="text_39">
    <!-- 299 -->
    <g transform="translate(244.140775 236.241594) rotate(-90) scale(0.07 -0.07)">
     <use xlink:href="#Arial-BoldMT-32"/>
     <use xlink:href="#Arial-BoldMT-39" x="55.615234"/>
     <use xlink:href="#Arial-BoldMT-39" x="111.230469"/>
    </g>
   </g>
   <g id="text_40">
    <!-- 857 -->
    <g transform="translate(276.310904 236.241594) rotate(-90) scale(0.07 -0.07)">
     <use xlink:href="#Arial-BoldMT-38"/>
     <use xlink:href="#Arial-BoldMT-35" x="55.615234"/>
     <use xlink:href="#Arial-BoldMT-37" x="111.230469"/>
    </g>
   </g>
   <g id="text_41">
    <!-- 6224 -->
    <g style="fill: #ffffff" transform="translate(244.140775 177.502725) rotate(-90) scale(0.07 -0.07)">
     <use xlink:href="#Arial-BoldMT-36"/>
     <use xlink:href="#Arial-BoldMT-32" x="55.615234"/>
     <use xlink:href="#Arial-BoldMT-32" x="111.230469"/>
     <use xlink:href="#Arial-BoldMT-34" x="166.845703"/>
    </g>
   </g>
   <g id="text_42">
    <!-- 16323 -->
    <g style="fill: #ffffff" transform="translate(276.310904 179.449053) rotate(-90) scale(0.07 -0.07)">
     <use xlink:href="#Arial-BoldMT-31"/>
     <use xlink:href="#Arial-BoldMT-36" x="55.615234"/>
     <use xlink:href="#Arial-BoldMT-33" x="111.230469"/>
     <use xlink:href="#Arial-BoldMT-32" x="166.845703"/>
     <use xlink:href="#Arial-BoldMT-33" x="222.460938"/>
    </g>
   </g>
   <g id="text_43">
    <!-- 3401 -->
    <g transform="translate(244.140775 83.526466) rotate(-90) scale(0.07 -0.07)">
     <use xlink:href="#Arial-BoldMT-33"/>
     <use xlink:href="#Arial-BoldMT-34" x="55.615234"/>
     <use xlink:href="#Arial-BoldMT-30" x="111.230469"/>
     <use xlink:href="#Arial-BoldMT-31" x="166.845703"/>
    </g>
   </g>
   <g id="text_44">
    <!-- 10938 -->
    <g transform="translate(276.310904 78.978467) rotate(-90) scale(0.07 -0.07)">
     <use xlink:href="#Arial-BoldMT-31"/>
     <use xlink:href="#Arial-BoldMT-30" x="55.615234"/>
     <use xlink:href="#Arial-BoldMT-39" x="111.230469"/>
     <use xlink:href="#Arial-BoldMT-33" x="166.845703"/>
     <use xlink:href="#Arial-BoldMT-38" x="222.460938"/>
    </g>
   </g>
   <g id="text_45">
    <!-- X!Tandem -->
    <g transform="translate(242.655293 45.84) scale(0.07 -0.07)">
     <defs>
      <path id="ArialMT-58" d="M 28 0 
L 1800 2388 
L 238 4581 
L 959 4581 
L 1791 3406 
Q 2050 3041 2159 2844 
Q 2313 3094 2522 3366 
L 3444 4581 
L 4103 4581 
L 2494 2422 
L 4228 0 
L 3478 0 
L 2325 1634 
Q 2228 1775 2125 1941 
Q 1972 1691 1906 1597 
L 756 0 
L 28 0 
z
" transform="scale(0.015625)"/>
      <path id="ArialMT-21" d="M 722 1138 
L 550 3566 
L 550 4581 
L 1247 4581 
L 1247 3566 
L 1084 1138 
L 722 1138 
z
M 575 0 
L 575 641 
L 1222 641 
L 1222 0 
L 575 0 
z
" transform="scale(0.015625)"/>
      <path id="ArialMT-54" d="M 1659 0 
L 1659 4041 
L 150 4041 
L 150 4581 
L 3781 4581 
L 3781 4041 
L 2266 4041 
L 2266 0 
L 1659 0 
z
" transform="scale(0.015625)"/>
      <path id="ArialMT-64" d="M 2575 0 
L 2575 419 
Q 2259 -75 1647 -75 
Q 1250 -75 917 144 
Q 584 363 401 755 
Q 219 1147 219 1656 
Q 219 2153 384 2558 
Q 550 2963 881 3178 
Q 1213 3394 1622 3394 
Q 1922 3394 2156 3267 
Q 2391 3141 2538 2938 
L 2538 4581 
L 3097 4581 
L 3097 0 
L 2575 0 
z
M 797 1656 
Q 797 1019 1065 703 
Q 1334 388 1700 388 
Q 2069 388 2326 689 
Q 2584 991 2584 1609 
Q 2584 2291 2321 2609 
Q 2059 2928 1675 2928 
Q 1300 2928 1048 2622 
Q 797 2316 797 1656 
z
" transform="scale(0.015625)"/>
     </defs>
     <use xlink:href="#ArialMT-58"/>
     <use xlink:href="#ArialMT-21" x="66.699219"/>
     <use xlink:href="#ArialMT-54" x="94.482422"/>
     <use xlink:href="#ArialMT-61" x="144.441406"/>
     <use xlink:href="#ArialMT-6e" x="200.056641"/>
     <use xlink:href="#ArialMT-64" x="255.671875"/>
     <use xlink:href="#ArialMT-65" x="311.287109"/>
     <use xlink:href="#ArialMT-6d" x="366.902344"/>
    </g>
   </g>
  </g>
  <g id="axes_5">
   <g id="patch_46">
    <path d="M 291.776328 248.302354 
L 352.44 248.302354 
L 352.44 51.84 
L 291.776328 51.84 
z
" style="fill: #ffffff"/>
   </g>
   <g id="patch_47">
    <path d="M 294.533768 218.833001 
L 317.512431 218.833001 
L 317.512431 222.642316 
L 294.533768 222.642316 
z
" clip-path="url(#p91cf6e29f1)" style="fill: #7f7f7f; stroke: #000000; stroke-width: 0.5; stroke-linejoin: miter"/>
   </g>
   <g id="patch_48">
    <path d="M 326.703897 218.833001 
L 349.68256 218.833001 
L 349.68256 222.27593 
L 326.703897 222.27593 
z
" clip-path="url(#p91cf6e29f1)" style="fill: #7f7f7f; stroke: #000000; stroke-width: 0.5; stroke-linejoin: miter"/>
   </g>
   <g id="patch_49">
    <path d="M 294.533768 218.833001 
L 317.512431 218.833001 
L 317.512431 120.601824 
L 294.533768 120.601824 
z
" clip-path="url(#p91cf6e29f1)" style="fill: #1f4e8c; stroke: #000000; stroke-width: 0.5; stroke-linejoin: miter"/>
   </g>
   <g id="patch_50">
    <path d="M 326.703897 218.833001 
L 349.68256 218.833001 
L 349.68256 120.601824 
L 326.703897 120.601824 
z
" clip-path="url(#p91cf6e29f1)" style="fill: #1f4e8c; stroke: #000000; stroke-width: 0.5; stroke-linejoin: miter"/>
   </g>
   <g id="patch_51">
    <path d="M 294.533768 120.601824 
L 317.512431 120.601824 
L 317.512431 90.512331 
L 294.533768 90.512331 
z
" clip-path="url(#p91cf6e29f1)" style="fill: #e58b00; stroke: #000000; stroke-width: 0.5; stroke-linejoin: miter"/>
   </g>
   <g id="patch_52">
    <path d="M 326.703897 120.601824 
L 349.68256 120.601824 
L 349.68256 89.848523 
L 326.703897 89.848523 
z
" clip-path="url(#p91cf6e29f1)" style="fill: #e58b00; stroke: #000000; stroke-width: 0.5; stroke-linejoin: miter"/>
   </g>
   <g id="matplotlib.axis_9">
    <g id="xtick_9">
     <g id="line2d_41">
      <g>
       <use xlink:href="#m3c630759c0" x="306.0231" y="248.302354" style="stroke: #000000"/>
      </g>
     </g>
     <g id="text_46">
      <!-- label free -->
      <g transform="translate(284.67886 279.205767) rotate(-45) scale(0.07 -0.07)">
       <use xlink:href="#ArialMT-6c"/>
       <use xlink:href="#ArialMT-61" x="22.216797"/>
       <use xlink:href="#ArialMT-62" x="77.832031"/>
       <use xlink:href="#ArialMT-65" x="133.447266"/>
       <use xlink:href="#ArialMT-6c" x="189.0625"/>
       <use xlink:href="#ArialMT-20" x="211.279297"/>
       <use xlink:href="#ArialMT-66" x="239.0625"/>
       <use xlink:href="#ArialMT-72" x="266.845703"/>
       <use xlink:href="#ArialMT-65" x="300.146484"/>
       <use xlink:href="#ArialMT-65" x="355.761719"/>
      </g>
     </g>
    </g>
    <g id="xtick_10">
     <g id="line2d_42">
      <g>
       <use xlink:href="#m3c630759c0" x="338.193229" y="248.302354" style="stroke: #000000"/>
      </g>
     </g>
     <g id="text_47">
      <!-- UCEC -->
      <g transform="translate(323.183893 272.870864) rotate(-45) scale(0.07 -0.07)">
       <use xlink:href="#ArialMT-55"/>
       <use xlink:href="#ArialMT-43" x="72.216797"/>
       <use xlink:href="#ArialMT-45" x="144.433594"/>
       <use xlink:href="#ArialMT-43" x="211.132812"/>
      </g>
     </g>
    </g>
   </g>
   <g id="matplotlib.axis_10">
    <g id="ytick_33">
     <g id="line2d_43">
      <g>
       <use xlink:href="#m410d99f561" x="291.776328" y="243.390795" style="stroke: #000000"/>
      </g>
     </g>
    </g>
    <g id="ytick_34">
     <g id="line2d_44">
      <g>
       <use xlink:href="#m410d99f561" x="291.776328" y="218.833001" style="stroke: #000000"/>
      </g>
     </g>
    </g>
    <g id="ytick_35">
     <g id="line2d_45">
      <g>
       <use xlink:href="#m410d99f561" x="291.776328" y="194.275207" style="stroke: #000000"/>
      </g>
     </g>
    </g>
    <g id="ytick_36">
     <g id="line2d_46">
      <g>
       <use xlink:href="#m410d99f561" x="291.776328" y="169.717412" style="stroke: #000000"/>
      </g>
     </g>
    </g>
    <g id="ytick_37">
     <g id="line2d_47">
      <g>
       <use xlink:href="#m410d99f561" x="291.776328" y="145.159618" style="stroke: #000000"/>
      </g>
     </g>
    </g>
    <g id="ytick_38">
     <g id="line2d_48">
      <g>
       <use xlink:href="#m410d99f561" x="291.776328" y="120.601824" style="stroke: #000000"/>
      </g>
     </g>
    </g>
    <g id="ytick_39">
     <g id="line2d_49">
      <g>
       <use xlink:href="#m410d99f561" x="291.776328" y="96.04403" style="stroke: #000000"/>
      </g>
     </g>
    </g>
    <g id="ytick_40">
     <g id="line2d_50">
      <g>
       <use xlink:href="#m410d99f561" x="291.776328" y="71.486235" style="stroke: #000000"/>
      </g>
     </g>
    </g>
   </g>
   <g id="patch_53">
    <path d="M 291.776328 248.302354 
L 291.776328 51.84 
" style="fill: none; stroke: #d8d8d8; stroke-linejoin: miter; stroke-linecap: square"/>
   </g>
   <g id="patch_54">
    <path d="M 352.44 248.302354 
L 352.44 51.84 
" style="fill: none; stroke: #d8d8d8; stroke-linejoin: miter; stroke-linecap: square"/>
   </g>
   <g id="patch_55">
    <path d="M 291.776328 248.302354 
L 352.44 248.302354 
" style="fill: none; stroke: #d8d8d8; stroke-linejoin: miter; stroke-linecap: square"/>
   </g>
   <g id="patch_56">
    <path d="M 291.776328 51.84 
L 352.44 51.84 
" style="fill: none; stroke: #d8d8d8; stroke-linejoin: miter; stroke-linecap: square"/>
   </g>
   <g id="text_48">
    <!-- 465 -->
    <g transform="translate(307.837631 235.928318) rotate(-90) scale(0.07 -0.07)">
     <use xlink:href="#Arial-BoldMT-34"/>
     <use xlink:href="#Arial-BoldMT-36" x="55.615234"/>
     <use xlink:href="#Arial-BoldMT-35" x="111.230469"/>
    </g>
   </g>
   <g id="text_49">
    <!-- 975 -->
    <g transform="translate(340.00776 235.928318) rotate(-90) scale(0.07 -0.07)">
     <use xlink:href="#Arial-BoldMT-39"/>
     <use xlink:href="#Arial-BoldMT-37" x="55.615234"/>
     <use xlink:href="#Arial-BoldMT-35" x="111.230469"/>
    </g>
   </g>
   <g id="text_50">
    <!-- 7853 -->
    <g style="fill: #ffffff" transform="translate(307.837631 177.502725) rotate(-90) scale(0.07 -0.07)">
     <use xlink:href="#Arial-BoldMT-37"/>
     <use xlink:href="#Arial-BoldMT-38" x="55.615234"/>
     <use xlink:href="#Arial-BoldMT-35" x="111.230469"/>
     <use xlink:href="#Arial-BoldMT-33" x="166.845703"/>
    </g>
   </g>
   <g id="text_51">
    <!-- 18134 -->
    <g style="fill: #ffffff" transform="translate(340.00776 179.449053) rotate(-90) scale(0.07 -0.07)">
     <use xlink:href="#Arial-BoldMT-31"/>
     <use xlink:href="#Arial-BoldMT-38" x="55.615234"/>
     <use xlink:href="#Arial-BoldMT-31" x="111.230469"/>
     <use xlink:href="#Arial-BoldMT-33" x="166.845703"/>
     <use xlink:href="#Arial-BoldMT-34" x="222.460938"/>
    </g>
   </g>
   <g id="text_52">
    <!-- 3673 -->
    <g transform="translate(307.837631 87.287719) rotate(-90) scale(0.07 -0.07)">
     <use xlink:href="#Arial-BoldMT-33"/>
     <use xlink:href="#Arial-BoldMT-36" x="55.615234"/>
     <use xlink:href="#Arial-BoldMT-37" x="111.230469"/>
     <use xlink:href="#Arial-BoldMT-33" x="166.845703"/>
    </g>
   </g>
   <g id="text_53">
    <!-- 8709 -->
    <g transform="translate(340.00776 86.623911) rotate(-90) scale(0.07 -0.07)">
     <use xlink:href="#Arial-BoldMT-38"/>
     <use xlink:href="#Arial-BoldMT-37" x="55.615234"/>
     <use xlink:href="#Arial-BoldMT-30" x="111.230469"/>
     <use xlink:href="#Arial-BoldMT-39" x="166.845703"/>
    </g>
   </g>
   <g id="text_54">
    <!-- MSFragger -->
    <g transform="translate(304.604336 45.84) scale(0.07 -0.07)">
     <use xlink:href="#ArialMT-4d"/>
     <use xlink:href="#ArialMT-53" x="83.300781"/>
     <use xlink:href="#ArialMT-46" x="150"/>
     <use xlink:href="#ArialMT-72" x="211.083984"/>
     <use xlink:href="#ArialMT-61" x="244.384766"/>
     <use xlink:href="#ArialMT-67" x="300"/>
     <use xlink:href="#ArialMT-67" x="355.615234"/>
     <use xlink:href="#ArialMT-65" x="411.230469"/>
     <use xlink:href="#ArialMT-72" x="466.845703"/>
    </g>
   </g>
  </g>
  <g id="legend_1">
   <g id="patch_57">
    <path d="M 109.129375 29.901719 
L 250.870625 29.901719 
Q 252.270625 29.901719 252.270625 28.501719 
L 252.270625 19.3 
Q 252.270625 17.9 250.870625 17.9 
L 109.129375 17.9 
Q 107.729375 17.9 107.729375 19.3 
L 107.729375 28.501719 
Q 107.729375 29.901719 109.129375 29.901719 
z
" style="fill: #ffffff; opacity: 0.8; stroke: #cccccc; stroke-linejoin: miter"/>
   </g>
   <g id="patch_58">
    <path d="M 110.529375 25.710469 
L 124.529375 25.710469 
L 124.529375 20.810469 
L 110.529375 20.810469 
z
" style="fill: #7f7f7f; stroke: #000000; stroke-width: 0.5; stroke-linejoin: miter"/>
   </g>
   <g id="text_55">
    <!-- Loss -->
    <g transform="translate(130.129375 25.710469) scale(0.07 -0.07)">
     <defs>
      <path id="ArialMT-4c" d="M 469 0 
L 469 4581 
L 1075 4581 
L 1075 541 
L 3331 541 
L 3331 0 
L 469 0 
z
" transform="scale(0.015625)"/>
      <path id="ArialMT-73" d="M 197 991 
L 753 1078 
Q 800 744 1014 566 
Q 1228 388 1613 388 
Q 2000 388 2187 545 
Q 2375 703 2375 916 
Q 2375 1106 2209 1216 
Q 2094 1291 1634 1406 
Q 1016 1563 777 1677 
Q 538 1791 414 1992 
Q 291 2194 291 2438 
Q 291 2659 392 2848 
Q 494 3038 669 3163 
Q 800 3259 1026 3326 
Q 1253 3394 1513 3394 
Q 1903 3394 2198 3281 
Q 2494 3169 2634 2976 
Q 2775 2784 2828 2463 
L 2278 2388 
Q 2241 2644 2061 2787 
Q 1881 2931 1553 2931 
Q 1166 2931 1000 2803 
Q 834 2675 834 2503 
Q 834 2394 903 2306 
Q 972 2216 1119 2156 
Q 1203 2125 1616 2013 
Q 2213 1853 2448 1751 
Q 2684 1650 2818 1456 
Q 2953 1263 2953 975 
Q 2953 694 2789 445 
Q 2625 197 2315 61 
Q 2006 -75 1616 -75 
Q 969 -75 630 194 
Q 291 463 197 991 
z
" transform="scale(0.015625)"/>
     </defs>
     <use xlink:href="#ArialMT-4c"/>
     <use xlink:href="#ArialMT-6f" x="55.615234"/>
     <use xlink:href="#ArialMT-73" x="111.230469"/>
     <use xlink:href="#ArialMT-73" x="161.230469"/>
    </g>
   </g>
   <g id="patch_59">
    <path d="M 158.914687 25.710469 
L 172.914687 25.710469 
L 172.914687 20.810469 
L 158.914687 20.810469 
z
" style="fill: #1f4e8c; stroke: #000000; stroke-width: 0.5; stroke-linejoin: miter"/>
   </g>
   <g id="text_56">
    <!-- Shared -->
    <g transform="translate(178.514687 25.710469) scale(0.07 -0.07)">
     <defs>
      <path id="ArialMT-68" d="M 422 0 
L 422 4581 
L 984 4581 
L 984 2938 
Q 1378 3394 1978 3394 
Q 2347 3394 2619 3248 
Q 2891 3103 3008 2847 
Q 3125 2591 3125 2103 
L 3125 0 
L 2563 0 
L 2563 2103 
Q 2563 2525 2380 2717 
Q 2197 2909 1863 2909 
Q 1613 2909 1392 2779 
Q 1172 2650 1078 2428 
Q 984 2206 984 1816 
L 984 0 
L 422 0 
z
" transform="scale(0.015625)"/>
     </defs>
     <use xlink:href="#ArialMT-53"/>
     <use xlink:href="#ArialMT-68" x="66.699219"/>
     <use xlink:href="#ArialMT-61" x="122.314453"/>
     <use xlink:href="#ArialMT-72" x="177.929688"/>
     <use xlink:href="#ArialMT-65" x="211.230469"/>
     <use xlink:href="#ArialMT-64" x="266.845703"/>
    </g>
   </g>
   <g id="patch_60">
    <path d="M 215.085312 25.710469 
L 229.085312 25.710469 
L 229.085312 20.810469 
L 215.085312 20.810469 
z
" style="fill: #e58b00; stroke: #000000; stroke-width: 0.5; stroke-linejoin: miter"/>
   </g>
   <g id="text_57">
    <!-- Gain -->
    <g transform="translate(234.685312 25.710469) scale(0.07 -0.07)">
     <defs>
      <path id="ArialMT-69" d="M 425 3934 
L 425 4581 
L 988 4581 
L 988 3934 
L 425 3934 
z
M 425 0 
L 425 3319 
L 988 3319 
L 988 0 
L 425 0 
z
" transform="scale(0.015625)"/>
     </defs>
     <use xlink:href="#ArialMT-47"/>
     <use xlink:href="#ArialMT-61" x="77.783203"/>
     <use xlink:href="#ArialMT-69" x="133.398438"/>
     <use xlink:href="#ArialMT-6e" x="155.615234"/>
    </g>
   </g>
  </g>
 </g>
 <defs>
  <clipPath id="p98aae4db7c">
   <rect x="36.988906" y="51.84" width="60.663672" height="196.462354"/>
  </clipPath>
  <clipPath id="p98e320da3c">
   <rect x="100.685762" y="51.84" width="60.663672" height="196.462354"/>
  </clipPath>
  <clipPath id="p0974900ee5">
   <rect x="164.382617" y="51.84" width="60.663672" height="196.462354"/>
  </clipPath>
  <clipPath id="pfcd523bfc0">
   <rect x="228.079473" y="51.84" width="60.663672" height="196.462354"/>
  </clipPath>
  <clipPath id="p91cf6e29f1">
   <rect x="291.776328" y="51.84" width="60.663672" height="196.462354"/>
  </clipPath>
 </defs>
</svg>
